PathFileType	4	(X/Y/Z)	C:/Users/beibeiliu/ov580/test_trc/User3\sequence.37_training_dense_left.trc
DataRate	CameraRate	NumFrames	NumMarkers	Units	OrigDataRate	OrigDataStartFrame	OrigNumFrames
120	120	11	19	mm	120	206	274
Frame#	Time	ThumbCMC			ThumbMCP			ThumbIP			ThumbTip			IndexMCP			IndexPIP			IndexTip			MiddleMCP			MiddlePIP			MiddleTip			RingMCP			RingPIP			RingTip			PinkyMCP			PinkyPIP			PinkyTip			BackHand1			BackHand2			BackHand3	
		X0	Y0	Z0	X1	Y1	Z1	X2	Y2	Z2	X3	Y3	Z3	X4	Y4	Z4	X5	Y5	Z5	X6	Y6	Z6	X7	Y7	Z7	X8	Y8	Z8	X9	Y9	Z9	X10	Y10	Z10	X11	Y11	Z11	X12	Y12	Z12	X13	Y13	Z13	X14	Y14	Z14	X15	Y15	Z15	X16	Y16	Z16	X17	Y17	Z17	X18	Y18	Z18	
205	1.70833	-130.886	-67.9018	19.4362	-122.983	-93.4809	5.2004	-119.127	-113.176	-21.4726	-130.971	-121.532	-43.2149	-107.174	-63.7413	-52.2703	-99.4884	-90.5722	-74.4409	-118.599	-115.371	-68.6154	-119.802	-55.6942	-67.5557	-120.247	-80.817	-91.1377	-142.699	-110.446	-75.262	-142.771	-50.3461	-73.8193	-144.982	-76.5961	-91.7328	-154.631	-101.269	-77.6016	-163.341	-46.7	-67.0738	-165.669	-66.5942	-84.8142	-170.147	-92.3564	-75.2131	-155.448	-24.8924	-25.8326	-173.029	-15.3799	-1.71175	-137.618	-31.6154	0.422426	
206	1.71667	-133.947	-65.8281	19.1314	-123.578	-92.2688	5.583	-121.969	-110.924	-18.7602	-137.998	-116.503	-43.4825	-109.613	-65.9579	-53.1379	-103.616	-97.7236	-68.2398	-122.583	-116.76	-51.0783	-120.668	-62.8759	-67.4885	-125.107	-91.2875	-83.587	-144.538	-110.335	-56.5401	-145.424	-56.5173	-70.6033	-145.54	-86.1697	-84.4611	-161.656	-102.814	-58.4075	-168.014	-53.207	-63.9973	-165.641	-77.883	-79.257	-171.42	-99.1635	-56.2276	-157.604	-27.317	-27.0335	-176.676	-15.8747	-1.85119	-137.602	-33.7192	-0.522362	
207	1.725	-135.051	-60.7917	22.958	-120.123	-89.3989	10.6676	-116.652	-109.483	-14.9778	-134.55	-115.734	-36.1953	-105.299	-68.1023	-50.4701	-100.392	-98.0003	-59.7085	-119.999	-112.019	-38.7495	-121.439	-67.2051	-65.8947	-122.998	-98.0321	-74.1301	-145.612	-106.944	-41.2095	-139.906	-64.7909	-67.1059	-146.883	-92.5751	-76.6385	-156.256	-102.895	-46.9231	-167.938	-61.1299	-67.2092	-166.379	-88.4155	-73.9509	-173.697	-98.6841	-44.5411	-160.368	-29.758	-26.5972	-176.634	-17.9978	-5.46785	-142.735	-30.4009	2.2262	
208	1.73333	-133.93	-53.0888	27.0188	-115.551	-78.954	13.473	-108.612	-103.534	-7.09402	-130.481	-110.945	-29.4457	-105.078	-63.9467	-48.077	-94.932	-96.0505	-51.0098	-114.559	-105.16	-27.5204	-121.174	-65.5386	-61.4839	-118.237	-99.2491	-62.9165	-141.406	-99.7418	-28.3114	-142.715	-66.6269	-65.361	-139.131	-99.2937	-62.3344	-151.658	-98.7857	-31.7134	-160.89	-67.1131	-61.8072	-158.602	-95.9044	-61.0085	-165.456	-100.23	-36.3139	-164.215	-30.073	-25.555	-182.466	-19.7811	-5.14083	-146.149	-26.006	-0.084436	
209	1.74167	-131.613	-39.9876	28.0146	-108.344	-62.9256	21.945	-98.2597	-89.0827	-0.987717	-116.55	-101.253	-16.8293	-103.407	-53.5481	-42.4482	-91.0095	-85.06	-44.8089	-108.165	-92.62	-17.03	-119.913	-62.9622	-58.5864	-110.939	-96.1963	-53.2856	-126.703	-92.2357	-16.2174	-136.898	-67.5234	-57.7437	-129.314	-98.6001	-53.1461	-140.929	-93.3909	-19.3836	-159.747	-75.2139	-55.8039	-152.51	-101.324	-48.2782	-156.878	-95.5081	-17.5963	-167.785	-30.29	-27.2879	-181.635	-21.6941	-6.70081	-150.599	-17.7185	-0.649049	
210	1.75	-130.947	-21.7489	24.0998	-103.897	-39.7734	22.8354	-89.2439	-63.5473	7.34843	-100.403	-86.4551	-7.08754	-99.3333	-41.1696	-43.8163	-79.9968	-67.5135	-36.6766	-93.74	-73.5652	-9.4313	-113.936	-57.6146	-54.5714	-96.5403	-81.2635	-45.875	-116.844	-78.7242	-7.39189	-132.404	-70.3199	-51.8732	-115.456	-91.3701	-40.9992	-125.605	-85.0873	-9.05488	-152.387	-80.9883	-46.0174	-135.112	-100.761	-31.2844	-138.575	-89.4493	-3.58066	-171.703	-31.7478	-24.7656	-191.971	-27.5742	-2.1924	-154.277	-12.818	-5.35302	
211	1.75833	-140.84	-6.19195	20.046	-106.646	-14.0295	17.194	-82.0768	-33.399	10.0449	-87.2691	-57.943	4.51013	-102.579	-27.4992	-46.2328	-77.3608	-44.4734	-38.4506	-84.4621	-48.5166	-3.71321	-113.167	-50.254	-51.1953	-85.8296	-64.0857	-40.6272	-101.66	-62.5271	-0.698022	-121.18	-68.8181	-45.307	-99.3043	-80.9076	-27.0732	-111.243	-68.6525	3.02956	-134.263	-82.3519	-34.3159	-115.146	-90.3	-18.5447	-117.787	-77.5434	8.10324	-173.024	-43.4091	-25.7861	-192.338	-38.4469	-4.01055	-164.585	-8.22074	-10.1734	
212	1.76667	-151.024	9.17098	14.1263	-116.502	12.5375	15.887	-88.357	-6.02327	8.83323	-85.1417	-32.0308	9.15934	-109.642	-18.6738	-47.2746	-78.7682	-22.6201	-41.2907	-79.1587	-20.9446	-6.85709	-112.218	-37.6977	-47.2632	-81.1944	-47.842	-36.3823	-89.8082	-39.0063	1.98698	-116.047	-58.968	-37.5002	-88.0736	-61.2138	-20.2846	-96.0313	-52.0686	6.95104	-126.407	-73.6876	-21.5464	-99.6456	-75.0124	-9.28941	-104.5	-63.6702	17.095	-170.936	-50.352	-18.23	-193.739	-46.4488	1.76958	-172.534	-17.4238	-11.5597	
213	1.775	-166.461	7.56614	11.193	-131.174	24.6522	11.0361	-101.67	13.0648	6.26514	-87.1004	-13.4569	9.1372	-115.571	-15.138	-48.7391	-85.6316	-7.63372	-44.4212	-81.353	-4.37841	-13.6634	-109.223	-34.3075	-46.8171	-81.1655	-29.6539	-38.4692	-85.5587	-22.4905	0.385226	-112.735	-52.5932	-31.6328	-83.3946	-45.2632	-19.3401	-89.1434	-31.2712	7.99253	-116.272	-64.7823	-14.0115	-91.2947	-56.2931	-4.20036	-93.9424	-40.993	22.7633	-166.598	-54.7384	-12.6631	-188.694	-53.1987	7.67864	-180.516	-18.5999	-10.2012	
214	1.78333	-177.74	8.22596	7.32085	-145.738	27.811	3.98756	-114.843	25.8192	3.08614	-99.0336	8.14987	10.3379	-123.434	-10.6708	-49.102	-94.1246	-0.460147	-46.1383	-91.5745	14.4144	-15.6536	-115.58	-28.8846	-43.116	-83.9567	-12.3755	-36.5741	-90.7646	0.0456547	-0.498262	-111.009	-45.4979	-26.1476	-83.9246	-33.512	-18.5337	-93.0607	-15.6659	10.8633	-112.383	-56.566	-7.52723	-88.0533	-41.7309	1.5697	-93.8582	-23.0432	25.6097	-163.345	-54.5919	-10.3642	-186.116	-55.1351	11.0814	-184.401	-27.6481	-11.4742	
215	1.79167	-184.991	5.23307	4.91055	-161.496	30.3258	0.0508488	-130.415	35.915	-1.22094	-110.77	23.9636	6.61337	-133.208	-9.24218	-45.585	-103.461	6.19563	-50.1207	-100.46	23.4631	-23.0683	-115.134	-24.6529	-41.9316	-91.2333	-5.69759	-39.592	-99.2205	12.6121	-1.33041	-109.814	-34.9355	-27.3892	-86.7481	-21.3327	-16.3737	-97.2899	-0.608734	7.34466	-109.192	-48.2805	-4.38546	-90.0154	-30.5221	0.689561	-97.875	-8.09333	22.8534	-160.431	-54.1002	-4.1635	-187.125	-57.4373	13.018	-185.511	-30.4768	-12.865	
